<mxfile host="Electron" modified="2023-11-27T18:35:18.891Z" agent="Mozilla/5.0 (Macintosh; Intel Mac OS X 10_15_7) AppleWebKit/537.36 (KHTML, like Gecko) draw.io/22.1.2 Chrome/114.0.5735.289 Electron/25.9.4 Safari/537.36" etag="QSed_FlatSgvoNU5xyiV" version="22.1.2" type="device">
  <diagram name="Сторінка-1" id="I6Tgs1i8oIzPxS4tr4Yb">
    <mxGraphModel dx="601" dy="796" grid="1" gridSize="10" guides="1" tooltips="1" connect="1" arrows="1" fold="1" page="1" pageScale="1" pageWidth="827" pageHeight="1169" math="0" shadow="0">
      <root>
        <mxCell id="0" />
        <mxCell id="1" parent="0" />
        <mxCell id="aiyuVcBWA7h1xKHSdzJu-3" value="" style="edgeStyle=orthogonalEdgeStyle;rounded=0;orthogonalLoop=1;jettySize=auto;html=1;" edge="1" parent="1" source="aiyuVcBWA7h1xKHSdzJu-1" target="aiyuVcBWA7h1xKHSdzJu-2">
          <mxGeometry relative="1" as="geometry" />
        </mxCell>
        <mxCell id="aiyuVcBWA7h1xKHSdzJu-1" value="Start" style="ellipse;whiteSpace=wrap;html=1;" vertex="1" parent="1">
          <mxGeometry x="180" y="20" width="120" height="80" as="geometry" />
        </mxCell>
        <mxCell id="aiyuVcBWA7h1xKHSdzJu-10" value="" style="edgeStyle=orthogonalEdgeStyle;rounded=0;orthogonalLoop=1;jettySize=auto;html=1;" edge="1" parent="1" source="aiyuVcBWA7h1xKHSdzJu-2" target="aiyuVcBWA7h1xKHSdzJu-4">
          <mxGeometry relative="1" as="geometry" />
        </mxCell>
        <mxCell id="aiyuVcBWA7h1xKHSdzJu-2" value="wheather" style="shape=parallelogram;perimeter=parallelogramPerimeter;whiteSpace=wrap;html=1;fixedSize=1;" vertex="1" parent="1">
          <mxGeometry x="180" y="120" width="120" height="60" as="geometry" />
        </mxCell>
        <mxCell id="aiyuVcBWA7h1xKHSdzJu-6" value="" style="edgeStyle=orthogonalEdgeStyle;rounded=0;orthogonalLoop=1;jettySize=auto;html=1;" edge="1" parent="1" source="aiyuVcBWA7h1xKHSdzJu-4" target="aiyuVcBWA7h1xKHSdzJu-5">
          <mxGeometry relative="1" as="geometry" />
        </mxCell>
        <mxCell id="aiyuVcBWA7h1xKHSdzJu-8" value="" style="edgeStyle=orthogonalEdgeStyle;rounded=0;orthogonalLoop=1;jettySize=auto;html=1;" edge="1" parent="1" source="aiyuVcBWA7h1xKHSdzJu-4">
          <mxGeometry relative="1" as="geometry">
            <mxPoint x="350" y="240" as="targetPoint" />
          </mxGeometry>
        </mxCell>
        <mxCell id="aiyuVcBWA7h1xKHSdzJu-4" value="is rainy/snowy?" style="rhombus;whiteSpace=wrap;html=1;" vertex="1" parent="1">
          <mxGeometry x="180" y="200" width="120" height="80" as="geometry" />
        </mxCell>
        <mxCell id="aiyuVcBWA7h1xKHSdzJu-15" style="edgeStyle=orthogonalEdgeStyle;rounded=0;orthogonalLoop=1;jettySize=auto;html=1;entryX=0.5;entryY=0;entryDx=0;entryDy=0;" edge="1" parent="1" source="aiyuVcBWA7h1xKHSdzJu-5" target="aiyuVcBWA7h1xKHSdzJu-13">
          <mxGeometry relative="1" as="geometry">
            <mxPoint x="80" y="350" as="targetPoint" />
            <Array as="points">
              <mxPoint x="80" y="340" />
            </Array>
          </mxGeometry>
        </mxCell>
        <mxCell id="aiyuVcBWA7h1xKHSdzJu-5" value="take coat" style="shape=parallelogram;perimeter=parallelogramPerimeter;whiteSpace=wrap;html=1;fixedSize=1;" vertex="1" parent="1">
          <mxGeometry x="20" y="210" width="120" height="60" as="geometry" />
        </mxCell>
        <mxCell id="aiyuVcBWA7h1xKHSdzJu-14" style="edgeStyle=orthogonalEdgeStyle;rounded=0;orthogonalLoop=1;jettySize=auto;html=1;entryX=0.5;entryY=0;entryDx=0;entryDy=0;" edge="1" parent="1" source="aiyuVcBWA7h1xKHSdzJu-9" target="aiyuVcBWA7h1xKHSdzJu-13">
          <mxGeometry relative="1" as="geometry">
            <mxPoint x="240" y="320" as="targetPoint" />
            <Array as="points">
              <mxPoint x="400" y="295" />
              <mxPoint x="401" y="295" />
              <mxPoint x="401" y="340" />
            </Array>
          </mxGeometry>
        </mxCell>
        <mxCell id="aiyuVcBWA7h1xKHSdzJu-9" value="don&#39;t take coat" style="shape=parallelogram;perimeter=parallelogramPerimeter;whiteSpace=wrap;html=1;fixedSize=1;" vertex="1" parent="1">
          <mxGeometry x="340" y="210" width="120" height="60" as="geometry" />
        </mxCell>
        <mxCell id="aiyuVcBWA7h1xKHSdzJu-11" value="Yes" style="text;html=1;strokeColor=none;fillColor=none;align=center;verticalAlign=middle;whiteSpace=wrap;rounded=0;" vertex="1" parent="1">
          <mxGeometry x="130" y="220" width="60" height="30" as="geometry" />
        </mxCell>
        <mxCell id="aiyuVcBWA7h1xKHSdzJu-12" value="No" style="text;html=1;strokeColor=none;fillColor=none;align=center;verticalAlign=middle;whiteSpace=wrap;rounded=0;" vertex="1" parent="1">
          <mxGeometry x="290" y="220" width="60" height="30" as="geometry" />
        </mxCell>
        <mxCell id="aiyuVcBWA7h1xKHSdzJu-20" value="" style="edgeStyle=orthogonalEdgeStyle;rounded=0;orthogonalLoop=1;jettySize=auto;html=1;" edge="1" parent="1" source="aiyuVcBWA7h1xKHSdzJu-13" target="aiyuVcBWA7h1xKHSdzJu-16">
          <mxGeometry relative="1" as="geometry" />
        </mxCell>
        <mxCell id="aiyuVcBWA7h1xKHSdzJu-28" value="" style="edgeStyle=orthogonalEdgeStyle;rounded=0;orthogonalLoop=1;jettySize=auto;html=1;" edge="1" parent="1" source="aiyuVcBWA7h1xKHSdzJu-13" target="aiyuVcBWA7h1xKHSdzJu-24">
          <mxGeometry relative="1" as="geometry" />
        </mxCell>
        <mxCell id="aiyuVcBWA7h1xKHSdzJu-13" value="sun" style="rhombus;whiteSpace=wrap;html=1;" vertex="1" parent="1">
          <mxGeometry x="37.5" y="370" width="85" height="80" as="geometry" />
        </mxCell>
        <mxCell id="aiyuVcBWA7h1xKHSdzJu-21" value="" style="edgeStyle=orthogonalEdgeStyle;rounded=0;orthogonalLoop=1;jettySize=auto;html=1;" edge="1" parent="1" source="aiyuVcBWA7h1xKHSdzJu-16" target="aiyuVcBWA7h1xKHSdzJu-17">
          <mxGeometry relative="1" as="geometry" />
        </mxCell>
        <mxCell id="aiyuVcBWA7h1xKHSdzJu-29" value="" style="edgeStyle=orthogonalEdgeStyle;rounded=0;orthogonalLoop=1;jettySize=auto;html=1;" edge="1" parent="1" source="aiyuVcBWA7h1xKHSdzJu-16" target="aiyuVcBWA7h1xKHSdzJu-25">
          <mxGeometry relative="1" as="geometry" />
        </mxCell>
        <mxCell id="aiyuVcBWA7h1xKHSdzJu-16" value="rain" style="rhombus;whiteSpace=wrap;html=1;" vertex="1" parent="1">
          <mxGeometry x="150" y="370" width="80" height="80" as="geometry" />
        </mxCell>
        <mxCell id="aiyuVcBWA7h1xKHSdzJu-22" value="" style="edgeStyle=orthogonalEdgeStyle;rounded=0;orthogonalLoop=1;jettySize=auto;html=1;" edge="1" parent="1" source="aiyuVcBWA7h1xKHSdzJu-17" target="aiyuVcBWA7h1xKHSdzJu-18">
          <mxGeometry relative="1" as="geometry" />
        </mxCell>
        <mxCell id="aiyuVcBWA7h1xKHSdzJu-30" value="" style="edgeStyle=orthogonalEdgeStyle;rounded=0;orthogonalLoop=1;jettySize=auto;html=1;" edge="1" parent="1" source="aiyuVcBWA7h1xKHSdzJu-17" target="aiyuVcBWA7h1xKHSdzJu-26">
          <mxGeometry relative="1" as="geometry" />
        </mxCell>
        <mxCell id="aiyuVcBWA7h1xKHSdzJu-17" value="cloud" style="rhombus;whiteSpace=wrap;html=1;" vertex="1" parent="1">
          <mxGeometry x="250" y="370" width="80" height="80" as="geometry" />
        </mxCell>
        <mxCell id="aiyuVcBWA7h1xKHSdzJu-23" value="" style="edgeStyle=orthogonalEdgeStyle;rounded=0;orthogonalLoop=1;jettySize=auto;html=1;" edge="1" parent="1" source="aiyuVcBWA7h1xKHSdzJu-18" target="aiyuVcBWA7h1xKHSdzJu-19">
          <mxGeometry relative="1" as="geometry" />
        </mxCell>
        <mxCell id="aiyuVcBWA7h1xKHSdzJu-31" value="" style="edgeStyle=orthogonalEdgeStyle;rounded=0;orthogonalLoop=1;jettySize=auto;html=1;" edge="1" parent="1" source="aiyuVcBWA7h1xKHSdzJu-18" target="aiyuVcBWA7h1xKHSdzJu-27">
          <mxGeometry relative="1" as="geometry" />
        </mxCell>
        <mxCell id="aiyuVcBWA7h1xKHSdzJu-18" value="snow" style="rhombus;whiteSpace=wrap;html=1;" vertex="1" parent="1">
          <mxGeometry x="350" y="370" width="80" height="80" as="geometry" />
        </mxCell>
        <mxCell id="aiyuVcBWA7h1xKHSdzJu-33" value="" style="edgeStyle=orthogonalEdgeStyle;rounded=0;orthogonalLoop=1;jettySize=auto;html=1;" edge="1" parent="1" source="aiyuVcBWA7h1xKHSdzJu-19" target="aiyuVcBWA7h1xKHSdzJu-32">
          <mxGeometry relative="1" as="geometry" />
        </mxCell>
        <mxCell id="aiyuVcBWA7h1xKHSdzJu-19" value="wind" style="rhombus;whiteSpace=wrap;html=1;" vertex="1" parent="1">
          <mxGeometry x="450" y="370" width="80" height="80" as="geometry" />
        </mxCell>
        <mxCell id="aiyuVcBWA7h1xKHSdzJu-48" style="edgeStyle=orthogonalEdgeStyle;rounded=0;orthogonalLoop=1;jettySize=auto;html=1;" edge="1" parent="1" source="aiyuVcBWA7h1xKHSdzJu-24">
          <mxGeometry relative="1" as="geometry">
            <mxPoint x="290" y="590" as="targetPoint" />
            <Array as="points">
              <mxPoint x="80" y="580" />
              <mxPoint x="291" y="580" />
            </Array>
          </mxGeometry>
        </mxCell>
        <mxCell id="aiyuVcBWA7h1xKHSdzJu-24" value="output" style="shape=parallelogram;perimeter=parallelogramPerimeter;whiteSpace=wrap;html=1;fixedSize=1;" vertex="1" parent="1">
          <mxGeometry x="35" y="470" width="90" height="60" as="geometry" />
        </mxCell>
        <mxCell id="aiyuVcBWA7h1xKHSdzJu-47" style="edgeStyle=orthogonalEdgeStyle;rounded=0;orthogonalLoop=1;jettySize=auto;html=1;" edge="1" parent="1" source="aiyuVcBWA7h1xKHSdzJu-25">
          <mxGeometry relative="1" as="geometry">
            <mxPoint x="290" y="550" as="targetPoint" />
            <Array as="points">
              <mxPoint x="190" y="550" />
            </Array>
          </mxGeometry>
        </mxCell>
        <mxCell id="aiyuVcBWA7h1xKHSdzJu-25" value="output" style="shape=parallelogram;perimeter=parallelogramPerimeter;whiteSpace=wrap;html=1;fixedSize=1;" vertex="1" parent="1">
          <mxGeometry x="145" y="470" width="90" height="60" as="geometry" />
        </mxCell>
        <mxCell id="aiyuVcBWA7h1xKHSdzJu-44" value="" style="edgeStyle=orthogonalEdgeStyle;rounded=0;orthogonalLoop=1;jettySize=auto;html=1;" edge="1" parent="1" source="aiyuVcBWA7h1xKHSdzJu-26">
          <mxGeometry relative="1" as="geometry">
            <mxPoint x="290" y="600" as="targetPoint" />
          </mxGeometry>
        </mxCell>
        <mxCell id="aiyuVcBWA7h1xKHSdzJu-26" value="output" style="shape=parallelogram;perimeter=parallelogramPerimeter;whiteSpace=wrap;html=1;fixedSize=1;" vertex="1" parent="1">
          <mxGeometry x="245" y="470" width="90" height="60" as="geometry" />
        </mxCell>
        <mxCell id="aiyuVcBWA7h1xKHSdzJu-46" style="edgeStyle=orthogonalEdgeStyle;rounded=0;orthogonalLoop=1;jettySize=auto;html=1;" edge="1" parent="1" source="aiyuVcBWA7h1xKHSdzJu-27">
          <mxGeometry relative="1" as="geometry">
            <mxPoint x="290" y="570" as="targetPoint" />
            <Array as="points">
              <mxPoint x="390" y="550" />
              <mxPoint x="291" y="550" />
            </Array>
          </mxGeometry>
        </mxCell>
        <mxCell id="aiyuVcBWA7h1xKHSdzJu-27" value="output" style="shape=parallelogram;perimeter=parallelogramPerimeter;whiteSpace=wrap;html=1;fixedSize=1;" vertex="1" parent="1">
          <mxGeometry x="345" y="470" width="90" height="60" as="geometry" />
        </mxCell>
        <mxCell id="aiyuVcBWA7h1xKHSdzJu-45" style="edgeStyle=orthogonalEdgeStyle;rounded=0;orthogonalLoop=1;jettySize=auto;html=1;" edge="1" parent="1" source="aiyuVcBWA7h1xKHSdzJu-32">
          <mxGeometry relative="1" as="geometry">
            <mxPoint x="290" y="580" as="targetPoint" />
            <Array as="points">
              <mxPoint x="490" y="570" />
              <mxPoint x="291" y="570" />
            </Array>
          </mxGeometry>
        </mxCell>
        <mxCell id="aiyuVcBWA7h1xKHSdzJu-32" value="output" style="shape=parallelogram;perimeter=parallelogramPerimeter;whiteSpace=wrap;html=1;fixedSize=1;" vertex="1" parent="1">
          <mxGeometry x="445" y="470" width="90" height="60" as="geometry" />
        </mxCell>
        <mxCell id="aiyuVcBWA7h1xKHSdzJu-34" value="No" style="text;html=1;strokeColor=none;fillColor=none;align=center;verticalAlign=middle;whiteSpace=wrap;rounded=0;" vertex="1" parent="1">
          <mxGeometry x="110" y="380" width="60" height="30" as="geometry" />
        </mxCell>
        <mxCell id="aiyuVcBWA7h1xKHSdzJu-35" value="No" style="text;html=1;strokeColor=none;fillColor=none;align=center;verticalAlign=middle;whiteSpace=wrap;rounded=0;" vertex="1" parent="1">
          <mxGeometry x="310" y="380" width="60" height="30" as="geometry" />
        </mxCell>
        <mxCell id="aiyuVcBWA7h1xKHSdzJu-36" value="No" style="text;html=1;strokeColor=none;fillColor=none;align=center;verticalAlign=middle;whiteSpace=wrap;rounded=0;" vertex="1" parent="1">
          <mxGeometry x="210" y="380" width="60" height="30" as="geometry" />
        </mxCell>
        <mxCell id="aiyuVcBWA7h1xKHSdzJu-37" value="No" style="text;html=1;strokeColor=none;fillColor=none;align=center;verticalAlign=middle;whiteSpace=wrap;rounded=0;" vertex="1" parent="1">
          <mxGeometry x="410" y="380" width="60" height="30" as="geometry" />
        </mxCell>
        <mxCell id="aiyuVcBWA7h1xKHSdzJu-38" value="Yes" style="text;html=1;strokeColor=none;fillColor=none;align=center;verticalAlign=middle;whiteSpace=wrap;rounded=0;" vertex="1" parent="1">
          <mxGeometry x="70" y="440" width="60" height="30" as="geometry" />
        </mxCell>
        <mxCell id="aiyuVcBWA7h1xKHSdzJu-39" value="Yes" style="text;html=1;strokeColor=none;fillColor=none;align=center;verticalAlign=middle;whiteSpace=wrap;rounded=0;" vertex="1" parent="1">
          <mxGeometry x="180" y="440" width="60" height="30" as="geometry" />
        </mxCell>
        <mxCell id="aiyuVcBWA7h1xKHSdzJu-40" value="Yes" style="text;html=1;strokeColor=none;fillColor=none;align=center;verticalAlign=middle;whiteSpace=wrap;rounded=0;" vertex="1" parent="1">
          <mxGeometry x="280" y="440" width="60" height="30" as="geometry" />
        </mxCell>
        <mxCell id="aiyuVcBWA7h1xKHSdzJu-41" value="Yes" style="text;html=1;strokeColor=none;fillColor=none;align=center;verticalAlign=middle;whiteSpace=wrap;rounded=0;" vertex="1" parent="1">
          <mxGeometry x="375" y="440" width="60" height="30" as="geometry" />
        </mxCell>
        <mxCell id="aiyuVcBWA7h1xKHSdzJu-42" value="Yes" style="text;html=1;strokeColor=none;fillColor=none;align=center;verticalAlign=middle;whiteSpace=wrap;rounded=0;" vertex="1" parent="1">
          <mxGeometry x="475" y="440" width="60" height="30" as="geometry" />
        </mxCell>
        <mxCell id="aiyuVcBWA7h1xKHSdzJu-66" value="" style="edgeStyle=orthogonalEdgeStyle;rounded=0;orthogonalLoop=1;jettySize=auto;html=1;" edge="1" parent="1" source="aiyuVcBWA7h1xKHSdzJu-58" target="aiyuVcBWA7h1xKHSdzJu-61">
          <mxGeometry relative="1" as="geometry" />
        </mxCell>
        <mxCell id="aiyuVcBWA7h1xKHSdzJu-67" style="edgeStyle=orthogonalEdgeStyle;rounded=0;orthogonalLoop=1;jettySize=auto;html=1;entryX=0.5;entryY=0;entryDx=0;entryDy=0;" edge="1" parent="1" source="aiyuVcBWA7h1xKHSdzJu-58" target="aiyuVcBWA7h1xKHSdzJu-63">
          <mxGeometry relative="1" as="geometry" />
        </mxCell>
        <mxCell id="aiyuVcBWA7h1xKHSdzJu-68" style="edgeStyle=orthogonalEdgeStyle;rounded=0;orthogonalLoop=1;jettySize=auto;html=1;entryX=0.5;entryY=0;entryDx=0;entryDy=0;" edge="1" parent="1" target="aiyuVcBWA7h1xKHSdzJu-62">
          <mxGeometry relative="1" as="geometry">
            <mxPoint x="300" y="650" as="sourcePoint" />
            <mxPoint x="395" y="660" as="targetPoint" />
          </mxGeometry>
        </mxCell>
        <mxCell id="aiyuVcBWA7h1xKHSdzJu-58" value="switch wheather" style="rounded=0;whiteSpace=wrap;html=1;" vertex="1" parent="1">
          <mxGeometry x="235" y="600" width="120" height="60" as="geometry" />
        </mxCell>
        <mxCell id="aiyuVcBWA7h1xKHSdzJu-76" value="" style="edgeStyle=orthogonalEdgeStyle;rounded=0;orthogonalLoop=1;jettySize=auto;html=1;" edge="1" parent="1" source="aiyuVcBWA7h1xKHSdzJu-59" target="aiyuVcBWA7h1xKHSdzJu-70">
          <mxGeometry relative="1" as="geometry" />
        </mxCell>
        <mxCell id="aiyuVcBWA7h1xKHSdzJu-59" value="case sun" style="rhombus;whiteSpace=wrap;html=1;" vertex="1" parent="1">
          <mxGeometry x="60" y="670" width="80" height="80" as="geometry" />
        </mxCell>
        <mxCell id="aiyuVcBWA7h1xKHSdzJu-77" value="" style="edgeStyle=orthogonalEdgeStyle;rounded=0;orthogonalLoop=1;jettySize=auto;html=1;" edge="1" parent="1" source="aiyuVcBWA7h1xKHSdzJu-60" target="aiyuVcBWA7h1xKHSdzJu-71">
          <mxGeometry relative="1" as="geometry" />
        </mxCell>
        <mxCell id="aiyuVcBWA7h1xKHSdzJu-60" value="case rain" style="rhombus;whiteSpace=wrap;html=1;" vertex="1" parent="1">
          <mxGeometry x="150" y="670" width="80" height="80" as="geometry" />
        </mxCell>
        <mxCell id="aiyuVcBWA7h1xKHSdzJu-78" value="" style="edgeStyle=orthogonalEdgeStyle;rounded=0;orthogonalLoop=1;jettySize=auto;html=1;" edge="1" parent="1" source="aiyuVcBWA7h1xKHSdzJu-61" target="aiyuVcBWA7h1xKHSdzJu-73">
          <mxGeometry relative="1" as="geometry" />
        </mxCell>
        <mxCell id="aiyuVcBWA7h1xKHSdzJu-61" value="case cloud" style="rhombus;whiteSpace=wrap;html=1;" vertex="1" parent="1">
          <mxGeometry x="255" y="680" width="80" height="80" as="geometry" />
        </mxCell>
        <mxCell id="aiyuVcBWA7h1xKHSdzJu-80" value="" style="edgeStyle=orthogonalEdgeStyle;rounded=0;orthogonalLoop=1;jettySize=auto;html=1;" edge="1" parent="1" source="aiyuVcBWA7h1xKHSdzJu-62" target="aiyuVcBWA7h1xKHSdzJu-74">
          <mxGeometry relative="1" as="geometry" />
        </mxCell>
        <mxCell id="aiyuVcBWA7h1xKHSdzJu-62" value="case snow" style="rhombus;whiteSpace=wrap;html=1;" vertex="1" parent="1">
          <mxGeometry x="350" y="670" width="80" height="80" as="geometry" />
        </mxCell>
        <mxCell id="aiyuVcBWA7h1xKHSdzJu-81" value="" style="edgeStyle=orthogonalEdgeStyle;rounded=0;orthogonalLoop=1;jettySize=auto;html=1;" edge="1" parent="1" source="aiyuVcBWA7h1xKHSdzJu-63" target="aiyuVcBWA7h1xKHSdzJu-75">
          <mxGeometry relative="1" as="geometry" />
        </mxCell>
        <mxCell id="aiyuVcBWA7h1xKHSdzJu-63" value="case wind" style="rhombus;whiteSpace=wrap;html=1;" vertex="1" parent="1">
          <mxGeometry x="455" y="670" width="80" height="80" as="geometry" />
        </mxCell>
        <mxCell id="aiyuVcBWA7h1xKHSdzJu-64" style="edgeStyle=orthogonalEdgeStyle;rounded=0;orthogonalLoop=1;jettySize=auto;html=1;entryX=0.456;entryY=0.088;entryDx=0;entryDy=0;entryPerimeter=0;" edge="1" parent="1" source="aiyuVcBWA7h1xKHSdzJu-58" target="aiyuVcBWA7h1xKHSdzJu-59">
          <mxGeometry relative="1" as="geometry" />
        </mxCell>
        <mxCell id="aiyuVcBWA7h1xKHSdzJu-65" style="edgeStyle=orthogonalEdgeStyle;rounded=0;orthogonalLoop=1;jettySize=auto;html=1;entryX=0.5;entryY=0;entryDx=0;entryDy=0;" edge="1" parent="1" target="aiyuVcBWA7h1xKHSdzJu-60">
          <mxGeometry relative="1" as="geometry">
            <mxPoint x="230" y="641" as="sourcePoint" />
            <mxPoint x="106" y="687" as="targetPoint" />
            <Array as="points">
              <mxPoint x="230" y="640" />
              <mxPoint x="230" y="641" />
              <mxPoint x="190" y="641" />
            </Array>
          </mxGeometry>
        </mxCell>
        <mxCell id="aiyuVcBWA7h1xKHSdzJu-90" style="edgeStyle=orthogonalEdgeStyle;rounded=0;orthogonalLoop=1;jettySize=auto;html=1;" edge="1" parent="1" source="aiyuVcBWA7h1xKHSdzJu-70" target="aiyuVcBWA7h1xKHSdzJu-82">
          <mxGeometry relative="1" as="geometry">
            <Array as="points">
              <mxPoint x="100" y="870" />
              <mxPoint x="295" y="870" />
            </Array>
          </mxGeometry>
        </mxCell>
        <mxCell id="aiyuVcBWA7h1xKHSdzJu-70" value="output" style="shape=parallelogram;perimeter=parallelogramPerimeter;whiteSpace=wrap;html=1;fixedSize=1;" vertex="1" parent="1">
          <mxGeometry x="55" y="780" width="90" height="60" as="geometry" />
        </mxCell>
        <mxCell id="aiyuVcBWA7h1xKHSdzJu-86" style="edgeStyle=orthogonalEdgeStyle;rounded=0;orthogonalLoop=1;jettySize=auto;html=1;" edge="1" parent="1" source="aiyuVcBWA7h1xKHSdzJu-71" target="aiyuVcBWA7h1xKHSdzJu-82">
          <mxGeometry relative="1" as="geometry" />
        </mxCell>
        <mxCell id="aiyuVcBWA7h1xKHSdzJu-71" value="output" style="shape=parallelogram;perimeter=parallelogramPerimeter;whiteSpace=wrap;html=1;fixedSize=1;" vertex="1" parent="1">
          <mxGeometry x="145" y="780" width="90" height="60" as="geometry" />
        </mxCell>
        <mxCell id="aiyuVcBWA7h1xKHSdzJu-85" value="" style="edgeStyle=orthogonalEdgeStyle;rounded=0;orthogonalLoop=1;jettySize=auto;html=1;" edge="1" parent="1" source="aiyuVcBWA7h1xKHSdzJu-73" target="aiyuVcBWA7h1xKHSdzJu-82">
          <mxGeometry relative="1" as="geometry" />
        </mxCell>
        <mxCell id="aiyuVcBWA7h1xKHSdzJu-73" value="output" style="shape=parallelogram;perimeter=parallelogramPerimeter;whiteSpace=wrap;html=1;fixedSize=1;" vertex="1" parent="1">
          <mxGeometry x="250" y="780" width="90" height="60" as="geometry" />
        </mxCell>
        <mxCell id="aiyuVcBWA7h1xKHSdzJu-87" style="edgeStyle=orthogonalEdgeStyle;rounded=0;orthogonalLoop=1;jettySize=auto;html=1;" edge="1" parent="1" source="aiyuVcBWA7h1xKHSdzJu-74" target="aiyuVcBWA7h1xKHSdzJu-82">
          <mxGeometry relative="1" as="geometry" />
        </mxCell>
        <mxCell id="aiyuVcBWA7h1xKHSdzJu-74" value="output" style="shape=parallelogram;perimeter=parallelogramPerimeter;whiteSpace=wrap;html=1;fixedSize=1;" vertex="1" parent="1">
          <mxGeometry x="345" y="780" width="90" height="60" as="geometry" />
        </mxCell>
        <mxCell id="aiyuVcBWA7h1xKHSdzJu-88" style="edgeStyle=orthogonalEdgeStyle;rounded=0;orthogonalLoop=1;jettySize=auto;html=1;" edge="1" parent="1" source="aiyuVcBWA7h1xKHSdzJu-75" target="aiyuVcBWA7h1xKHSdzJu-82">
          <mxGeometry relative="1" as="geometry">
            <Array as="points">
              <mxPoint x="495" y="870" />
              <mxPoint x="295" y="870" />
            </Array>
          </mxGeometry>
        </mxCell>
        <mxCell id="aiyuVcBWA7h1xKHSdzJu-75" value="output" style="shape=parallelogram;perimeter=parallelogramPerimeter;whiteSpace=wrap;html=1;fixedSize=1;" vertex="1" parent="1">
          <mxGeometry x="450" y="770" width="90" height="60" as="geometry" />
        </mxCell>
        <mxCell id="aiyuVcBWA7h1xKHSdzJu-82" value="End" style="ellipse;whiteSpace=wrap;html=1;" vertex="1" parent="1">
          <mxGeometry x="235" y="890" width="120" height="80" as="geometry" />
        </mxCell>
      </root>
    </mxGraphModel>
  </diagram>
</mxfile>
